<svg width="32" height="32" viewBox="0 0 32 32" fill="none" xmlns="http://www.w3.org/2000/svg">
<g clip-path="url(#clip0_2671_64)">
<mask id="mask0_2671_64" style="mask-type:luminance" maskUnits="userSpaceOnUse" x="0" y="0" width="32" height="32">
<path d="M32 0H0V32H32V0Z" fill="white"/>
</mask>
<g mask="url(#mask0_2671_64)">
<path d="M16 32C24.8366 32 32 24.8366 32 16C32 7.16344 24.8366 0 16 0C7.16344 0 0 7.16344 0 16C0 24.8366 7.16344 32 16 32Z" fill="#D80027"/>
<path d="M8.75625 9.73828L10.1375 13.9883H14.6062L10.9937 16.6195L12.375 20.8695L8.75625 18.2445L5.1375 20.8695L6.525 16.6195L2.90625 13.9883H7.375L8.75625 9.73828Z" fill="#FFDA44"/>
<path d="M18.968 24.7816L17.9117 23.4816L16.3492 24.0879L17.2555 22.6816L16.1992 21.3754L17.818 21.8066L18.7305 20.4004L18.818 22.0754L20.443 22.5066L18.8742 23.1066L18.968 24.7816Z" fill="#FFDA44"/>
<path d="M21.068 20.9691L21.568 19.3691L20.1992 18.4004L21.8742 18.3754L22.368 16.7754L22.9117 18.3629L24.5867 18.3441L23.243 19.3441L23.7805 20.9316L22.4117 19.9629L21.068 20.9691Z" fill="#FFDA44"/>
<path d="M23.9008 11.743L23.1633 13.2492L24.3633 14.418L22.707 14.1805L21.9695 15.6805L21.682 14.0305L20.0195 13.793L21.507 13.0117L21.2195 11.3555L22.4195 12.5242L23.9008 11.743Z" fill="#FFDA44"/>
<path d="M19.0129 7.18164L18.8879 8.85039L20.4441 9.48164L18.8129 9.88164L18.6941 11.5566L17.8129 10.1316L16.1816 10.5316L17.2629 9.25039L16.3754 7.83164L17.9316 8.46289L19.0129 7.18164Z" fill="#FFDA44"/>
</g>
</g>
<defs>
<clipPath id="clip0_2671_64">
<rect width="32" height="32" fill="white"/>
</clipPath>
</defs>
</svg>
