<svg width="32" height="32" viewBox="0 0 32 32" fill="none" xmlns="http://www.w3.org/2000/svg">
<g clip-path="url(#clip0_2671_106)">
<mask id="mask0_2671_106" style="mask-type:luminance" maskUnits="userSpaceOnUse" x="0" y="0" width="32" height="32">
<path d="M32 0H0V32H32V0Z" fill="white"/>
</mask>
<g mask="url(#mask0_2671_106)">
<path d="M16 32C24.8366 32 32 24.8366 32 16C32 7.16344 24.8366 0 16 0C7.16344 0 0 7.16344 0 16C0 24.8366 7.16344 32 16 32Z" fill="#F0F0F0"/>
<path d="M15.9995 22.956C19.8415 22.956 22.956 19.8415 22.956 15.9995C22.956 12.1575 19.8415 9.04297 15.9995 9.04297C12.1575 9.04297 9.04297 12.1575 9.04297 15.9995C9.04297 19.8415 12.1575 22.956 15.9995 22.956Z" fill="#D80027"/>
</g>
</g>
<defs>
<clipPath id="clip0_2671_106">
<rect width="32" height="32" fill="white"/>
</clipPath>
</defs>
</svg>
