<svg width="32" height="32" viewBox="0 0 32 32" fill="none" xmlns="http://www.w3.org/2000/svg">
<g clip-path="url(#clip0_2671_113)">
<mask id="mask0_2671_113" style="mask-type:luminance" maskUnits="userSpaceOnUse" x="0" y="0" width="32" height="32">
<path d="M32 0H0V32H32V0Z" fill="white"/>
</mask>
<g mask="url(#mask0_2671_113)">
<path d="M0 16.0009C0 22.8803 4.342 28.745 10.4347 31.0057L11.8261 16.0008L10.4347 0.996094C4.342 3.25684 0 9.12147 0 16.0009Z" fill="#6DA544"/>
<path d="M32.0009 16C32.0009 7.1635 24.8374 0 16.0009 0C14.0437 0 12.1689 0.352063 10.4355 0.995188V31.0048C12.1689 31.648 14.0437 32 16.0009 32C24.8374 32 32.0009 24.8365 32.0009 16Z" fill="#D80027"/>
<path d="M10.4343 21.5659C13.5079 21.5659 15.9995 19.0743 15.9995 16.0007C15.9995 12.9272 13.5079 10.4355 10.4343 10.4355C7.36076 10.4355 4.86914 12.9272 4.86914 16.0007C4.86914 19.0743 7.36076 21.5659 10.4343 21.5659Z" fill="#FFDA44"/>
<path d="M7.30469 13.2168V16.695C7.30469 18.4239 8.70619 19.8255 10.4351 19.8255C12.1641 19.8255 13.5656 18.424 13.5656 16.695V13.2168H7.30469Z" fill="#D80027"/>
<path d="M10.4341 17.7394C9.85875 17.7394 9.39062 17.2713 9.39062 16.6959V15.3047H11.4776V16.696C11.4776 17.2713 11.0094 17.7394 10.4341 17.7394Z" fill="#F0F0F0"/>
</g>
</g>
<defs>
<clipPath id="clip0_2671_113">
<rect width="32" height="32" fill="white"/>
</clipPath>
</defs>
</svg>
