<svg width="32" height="32" viewBox="0 0 32 32" fill="none" xmlns="http://www.w3.org/2000/svg">
<g clip-path="url(#clip0_2671_131)">
<mask id="mask0_2671_131" style="mask-type:luminance" maskUnits="userSpaceOnUse" x="0" y="0" width="32" height="32">
<path d="M32 0H0V32H32V0Z" fill="white"/>
</mask>
<g mask="url(#mask0_2671_131)">
<path d="M16 32C24.8366 32 32 24.8366 32 16C32 7.16344 24.8366 0 16 0C7.16344 0 0 7.16344 0 16C0 24.8366 7.16344 32 16 32Z" fill="#6DA544"/>
<path d="M9.04297 19.1309C9.04297 20.2834 9.97734 21.2178 11.1299 21.2178H17.3908C17.3908 22.1783 18.1694 22.9569 19.1299 22.9569H21.2168C22.1773 22.9569 22.956 22.1783 22.956 21.2178V19.1309H9.04297Z" fill="#F0F0F0"/>
<path d="M23.1296 9.04297V13.9125C23.1296 14.6797 22.5055 15.3038 21.7383 15.3038V17.3908C23.6562 17.3908 25.2165 15.8304 25.2165 13.9125V9.04297H23.1296Z" fill="#F0F0F0"/>
<path d="M8.17452 13.9125C8.17452 14.6797 7.55039 15.3038 6.7832 15.3038V17.3908C8.70114 17.3908 10.2615 15.8304 10.2615 13.9125V9.04297H8.17452V13.9125Z" fill="#F0F0F0"/>
<path d="M20 9.04297H22.0869V13.9125H20V9.04297Z" fill="#F0F0F0"/>
<path d="M16.8699 11.8256C16.8699 12.0174 16.7138 12.1734 16.5221 12.1734C16.3303 12.1734 16.1742 12.0173 16.1742 11.8256V9.04297H14.0873V11.8256C14.0873 12.0174 13.9313 12.1734 13.7395 12.1734C13.5478 12.1734 13.3917 12.0173 13.3917 11.8256V9.04297H11.3047V11.8256C11.3047 13.1682 12.3969 14.2604 13.7395 14.2604C14.2566 14.2604 14.7361 14.0979 15.1308 13.8219C15.5255 14.0978 16.0051 14.2604 16.5221 14.2604C16.6263 14.2604 16.7286 14.2531 16.8293 14.2403C16.6814 14.8496 16.1327 15.3038 15.4786 15.3038V17.3908C17.3966 17.3908 18.9569 15.8304 18.9569 13.9125V11.8256V9.04297H16.8699V11.8256H16.8699Z" fill="#F0F0F0"/>
<path d="M11.3047 15.3047H14.4351V17.3916H11.3047V15.3047Z" fill="#F0F0F0"/>
</g>
</g>
<defs>
<clipPath id="clip0_2671_131">
<rect width="32" height="32" fill="white"/>
</clipPath>
</defs>
</svg>
