<svg width="32" height="32" viewBox="0 0 32 32" fill="none" xmlns="http://www.w3.org/2000/svg">
<g clip-path="url(#clip0_2671_143)">
<mask id="mask0_2671_143" style="mask-type:luminance" maskUnits="userSpaceOnUse" x="0" y="0" width="32" height="32">
<path d="M32 0H0V32H32V0Z" fill="white"/>
</mask>
<g mask="url(#mask0_2671_143)">
<path d="M16 32C24.8366 32 32 24.8366 32 16C32 7.16344 24.8366 0 16 0C7.16344 0 0 7.16344 0 16C0 24.8366 7.16344 32 16 32Z" fill="#F0F0F0"/>
<path d="M21.5659 16.0007C21.5659 17.392 19.0743 20.8703 16.0007 20.8703C12.9272 20.8703 10.4355 17.392 10.4355 16.0007C10.4355 12.9271 12.9272 10.4355 16.0007 10.4355C19.0743 10.4355 21.5659 12.9271 21.5659 16.0007Z" fill="#D80027"/>
<path d="M21.5659 16C21.5659 19.0736 19.0743 21.5652 16.0007 21.5652C12.9272 21.5652 10.4355 19.0736 10.4355 16" fill="#0052B4"/>
<path d="M21.8984 20.9189L23.3739 19.4434L24.3576 20.427L22.8821 21.9025L21.8984 20.9189Z" fill="black"/>
<path d="M19.4395 23.3778L20.915 21.9023L21.8986 22.886L20.4231 24.3615L19.4395 23.3778Z" fill="black"/>
<path d="M24.8496 23.87L26.3251 22.3945L27.3087 23.3782L25.8333 24.8537L24.8496 23.87Z" fill="black"/>
<path d="M22.3906 26.329L23.8661 24.8535L24.8498 25.8371L23.3743 27.3126L22.3906 26.329Z" fill="black"/>
<path d="M23.373 22.3954L24.8485 20.9199L25.8322 21.9035L24.3567 23.379L23.373 22.3954Z" fill="black"/>
<path d="M20.9141 24.8543L22.3896 23.3789L23.3732 24.3625L21.8978 25.838L20.9141 24.8543Z" fill="black"/>
<path d="M24.8565 11.0842L20.9219 7.14968L21.9056 6.16602L25.8401 10.1006L24.8565 11.0842Z" fill="black"/>
<path d="M20.9207 10.0997L19.4453 8.62425L20.4289 7.64062L21.9044 9.11606L20.9207 10.0997Z" fill="black"/>
<path d="M23.3797 12.5606L21.9043 11.0851L22.8879 10.1016L24.3634 11.577L23.3797 12.5606Z" fill="black"/>
<path d="M23.872 7.14859L22.3965 5.67311L23.3802 4.68945L24.8556 6.16492L23.872 7.14859Z" fill="black"/>
<path d="M26.3309 9.60952L24.8555 8.13408L25.8391 7.15039L27.3146 8.62589L26.3309 9.60952Z" fill="black"/>
<path d="M5.67312 22.3926L9.60771 26.3271L8.62402 27.3108L4.68945 23.3762L5.67312 22.3926Z" fill="black"/>
<path d="M9.60667 23.375L11.0821 24.8504L10.0985 25.8341L8.62305 24.3586L9.60667 23.375Z" fill="black"/>
<path d="M7.14771 20.916L8.62321 22.3915L7.63952 23.3751L6.16406 21.8997L7.14771 20.916Z" fill="black"/>
<path d="M8.6223 19.4395L12.5569 23.3741L11.5732 24.3577L7.63867 20.4231L8.6223 19.4395Z" fill="black"/>
<path d="M9.60573 5.67116L5.67116 9.60575L4.6875 8.62206L8.62211 4.6875L9.60573 5.67116Z" fill="black"/>
<path d="M11.0823 7.14573L7.14769 11.0804L6.16406 10.0967L10.0986 6.16211L11.0823 7.14573Z" fill="black"/>
<path d="M12.5589 8.6223L8.62425 12.5569L7.64062 11.5733L11.5753 7.63867L12.5589 8.6223Z" fill="black"/>
</g>
</g>
<defs>
<clipPath id="clip0_2671_143">
<rect width="32" height="32" fill="white"/>
</clipPath>
</defs>
</svg>
